<svg width="163" height="45" viewBox="0 0 163 45" fill="none" xmlns="http://www.w3.org/2000/svg">
    <g clip-path="url(#o3oru25q6a)">
        <path fill-rule="evenodd" clip-rule="evenodd" d="m113.471 20.31.691 2.49h4.653l.026-.088.342-1.064a81.74 81.74 0 0 0-6.019-2.448l.307 1.11zM102.606 17.619h.004l1.743 5.18h4.012l.928-3.308.262-.936a81.729 81.729 0 0 0-7.223-1.755l.274.819zM95.19 16.317l-.003.03c-.29 2.192-2.066 3.909-4.21 3.909-2.383 0-4.303-2.047-4.342-4.595-1.128-.036-2.259-.061-3.389-.061h-.178l-.002.017c0 4.639 3.565 8.383 7.944 8.383 3.81 0 6.998-2.936 7.659-6.803.02-.125.031-.254.048-.38a92.677 92.677 0 0 0-3.526-.5zM74.64 15.841V22.8h3.612v-7.2c-1.207.062-2.411.139-3.611.241zM58.992 17.692V22.8h3.612v-6a93.645 93.645 0 0 0-3.612.892zM68.621 16.077V22.8h3.612v-7.2c-1.211.135-2.413.298-3.612.477zM54.064 19.776c-.499 0-.865-.108-1.101-.347-1.226.356-2.405.801-3.604 1.199.662 1.543 2.242 2.172 4.34 2.172 1.433 0 2.746-.374 4.088-.806L56.779 19.2c-.885.288-1.77.576-2.715.576zM25.392 10.16c2.109 0 3.18 1.464 3.21 3.346h-6.484c.094-1.793 1.26-3.347 3.274-3.347zm-7.333 4.87c0 4.633 3.21 7.77 8.057 7.77 1.857 0 3.713-.417 5.413-1.105l-1.196-2.779c-1.133.477-2.707.778-3.997.778-2.329 0-3.966-1.078-4.218-3.377h10.166c.095-.658.221-1.316.221-1.973 0-4.155-2.612-7.144-7.145-7.144-4.815 0-7.301 3.497-7.301 7.83zM98.719 7.2l2.649 7.62c1.541.226 3.068.486 4.574.78l-2.754-8.4h-4.47z" fill="#FEFEFE"/>
        <mask id="9nvme3096b" style="mask-type:luminance" maskUnits="userSpaceOnUse" x="106" y="7" width="18" height="13">
            <path d="M106.652 7.824h17.152v12.132h-17.152V7.824z" fill="#FEFEFE"/>
        </mask>
        <g mask="url(#9nvme3096b)">
            <path fill-rule="evenodd" clip-rule="evenodd" d="m119.934 7.824-3.315 10.657-3.722-10.657h-3.379l-2.866 8.216a85.15 85.15 0 0 1 3.335.786l1.181-4.128 1.415 4.837a79.972 79.972 0 0 1 7.089 2.421l4.132-12.132h-3.87z" fill="#FEFEFE"/>
        </g>
        <path fill-rule="evenodd" clip-rule="evenodd" d="M85.566 13.6c.412 0 .824.01 1.237.014.64-1.622 2.25-2.812 4.053-2.812 1.918 0 3.597 1.371 4.134 3.211 1.251.107 2.494.237 3.727.387-.415-4.076-3.767-7.2-7.894-7.2-3.858 0-7.051 2.751-7.757 6.433.836-.019 1.672-.032 2.5-.032zM74.64 8.924s.271 1.566.271 2.35V14.4c1.2-.123 2.403-.23 3.612-.312V11.18c0-.094-.031-.313-.031-.313a8.87 8.87 0 0 1 2.71-.407c.662 0 1.504.156 1.986.313l1.084-3.227c-.814-.22-1.837-.346-2.769-.346-2.379 0-4.696.784-6.862 1.724zM58.992 1.407V16.8c1.198-.303 2.404-.59 3.62-.85v-4.485c.995-.598 2.292-1.109 3.47-1.109 1.507 0 2.532 1.08 2.532 2.727v1.769c1.201-.184 2.408-.348 3.62-.492v-1.815c0-3.327-1.779-5.306-5.157-5.306-1.539 0-3.077.39-4.465.99V0l-3.62 1.407zM52.328 3.6l-3.644 1.383v3.398l-1.73.09v2.803l1.73.088v8.145c0 .319.028.615.073.893a98.183 98.183 0 0 1 3.573-1.217V11.39h4.254V8.322H52.33V3.6h-.002zM36.57 17.988c0-1.673 4.218-1.096 5.481-2.26v3.097c0 .21.013.616.013.616-.864.269-1.738.37-2.63.37-1.325 0-2.865-.268-2.865-1.823zm-2.65-9.503 1.264 2.72c1.293-.539 2.894-.897 4.28-.897.924 0 2.587.12 2.587 1.376 0 2.599-9.547.537-9.547 6.573 0 3.497 3.942 4.543 6.899 4.543.924 0 1.655-.055 2.276-.157a89.994 89.994 0 0 1 4.061-1.738c.001-.06.007-.563.007-1.154v-7.68c0-3.466-2.464-4.87-5.76-4.87-2.001 0-4.25.477-6.067 1.284zM0 2.697V22.8h3.824v-9.306h9.207V22.8h3.823V1.21l-3.823 1.496v7.606H3.824V1.2L0 2.696z" fill="#FEFEFE"/>
    </g>
    <path d="M1.756 44v-7.608h1.296c1.944 0 2.376.432 3.144 2.136L8.572 44h1.656l-2.784-6.24c-.456-.96-.936-1.728-2.064-1.944 1.896-.264 3.6-1.656 3.6-3.672 0-2.928-2.208-4.152-4.824-4.152H.316V44h1.44zm0-14.712h1.776c2.16 0 3.936.504 3.936 2.808 0 2.232-2.112 3-4.032 3h-1.68v-5.808zM13.086 37.088c.12-1.68 1.104-4.08 3.672-4.08 2.424 0 3 2.232 3.072 4.08h-6.744zm8.16 1.152v-.624c0-2.88-.96-5.784-4.512-5.784-3.36 0-5.088 3.072-5.088 6.168 0 3.36 1.704 6.264 5.76 6.264 1.128 0 2.04-.168 3.072-.624l-.072-1.296c-.864.48-1.872.696-2.904.696-3.048 0-4.44-2.28-4.44-4.8h8.184zM22.858 43.736c1.032.408 2.088.528 2.976.528 2.016 0 4.032-1.2 4.032-3.552 0-3.936-5.304-3.24-5.304-5.664 0-1.512 1.248-1.968 2.472-1.968.84 0 1.632.168 2.376.528l.144-1.344c-.864-.36-1.632-.432-2.568-.432-1.92 0-3.816 1.008-3.816 3.216 0 3.552 5.28 2.76 5.28 5.664 0 1.632-1.128 2.304-2.568 2.304a6.802 6.802 0 0 1-2.88-.672l-.144 1.392zM33.123 37.088c.12-1.68 1.104-4.08 3.672-4.08 2.424 0 3 2.232 3.072 4.08h-6.744zm8.16 1.152v-.624c0-2.88-.96-5.784-4.512-5.784-3.36 0-5.088 3.072-5.088 6.168 0 3.36 1.704 6.264 5.76 6.264 1.128 0 2.04-.168 3.072-.624l-.072-1.296c-.864.48-1.872.696-2.904.696-3.048 0-4.44-2.28-4.44-4.8h8.184zM45.056 44v-6.096c0-1.872.456-4.704 2.952-4.704.312 0 .624.048.936.144l.096-1.416c-.36-.096-.672-.096-1.032-.096-1.44 0-2.64 1.248-3.096 2.472l-.096-2.232H43.64c.096.936.12 1.896.12 2.832V44h1.296zM55.044 44l4.104-11.928h-1.392l-3.408 10.656-3.384-10.656H49.5L53.556 44h1.488zM61.703 37.088c.12-1.68 1.104-4.08 3.672-4.08 2.424 0 3 2.232 3.072 4.08h-6.744zm8.16 1.152v-.624c0-2.88-.96-5.784-4.512-5.784-3.36 0-5.088 3.072-5.088 6.168 0 3.36 1.704 6.264 5.76 6.264 1.128 0 2.04-.168 3.072-.624l-.072-1.296c-.864.48-1.872.696-2.904.696-3.048 0-4.44-2.28-4.44-4.8h8.184zM88.69 36.32h2.473v-1.296H88.69v-2.016h-1.416v2.016h-3.408c-2.04 0-4.056-.432-4.056-3.024 0-1.992 1.944-2.952 3.936-2.952 1.248 0 2.328.264 3.456.816l.096-1.44a9.495 9.495 0 0 0-3.528-.672c-2.568 0-5.352 1.416-5.352 4.248 0 2.376 1.296 3.504 3.6 3.72-2.208.12-3.96 1.728-3.96 4.032 0 3.432 2.928 4.512 5.808 4.512 1.56 0 3.288-.24 4.824-.696V36.32zm-1.415 0v6.144c-1.152.384-2.184.504-3.408.504-2.112 0-4.392-.648-4.392-3.192 0-2.64 2.088-3.456 4.392-3.456h3.408zM110.674 42.296c-1.128.456-2.136.624-3.36.624-4.296 0-6.864-2.88-6.864-6.912 0-3.912 2.592-6.912 6.744-6.912 1.128 0 2.352.216 3.384.72l.144-1.416c-1.032-.456-2.352-.648-3.48-.648-4.872 0-8.304 3.552-8.304 8.256 0 4.92 3.24 8.256 8.328 8.256 1.152 0 2.472-.216 3.504-.576l-.096-1.392zM115.561 43.76c.696.336 1.488.504 2.4.504 3.624 0 5.4-2.904 5.4-6.264 0-3.408-1.704-6.168-5.4-6.168-3.456 0-5.4 2.88-5.4 6.168 0 2.52 1.008 4.752 3 5.76zm-.648-2.352c-.648-.96-.936-2.184-.936-3.408 0-2.448 1.176-4.92 3.984-4.92 2.88 0 3.984 2.424 3.984 4.92 0 2.424-1.176 5.016-3.984 5.016-1.416 0-2.4-.648-3.048-1.608zM127.362 44V26.696h-1.296V44h1.296zM132.131 44V26.696h-1.296V44h1.296zM136.228 37.088c.12-1.68 1.104-4.08 3.672-4.08 2.424 0 3 2.232 3.072 4.08h-6.744zm8.16 1.152v-.624c0-2.88-.96-5.784-4.512-5.784-3.36 0-5.088 3.072-5.088 6.168 0 3.36 1.704 6.264 5.76 6.264 1.128 0 2.04-.168 3.072-.624l-.072-1.296c-.864.48-1.872.696-2.904.696-3.048 0-4.44-2.28-4.44-4.8h8.184zM154.592 42.536c-.84.36-1.464.48-2.4.48-2.952 0-4.656-2.424-4.656-5.016 0-2.784 1.704-4.92 4.68-4.92.768 0 1.632.12 2.28.48l.12-1.344c-.84-.312-1.608-.384-2.544-.384-3.6 0-5.952 2.712-5.952 6.168 0 3.36 2.136 6.264 6 6.264.888 0 1.704-.096 2.592-.408l-.12-1.32zM159.255 33.224h2.712v-1.152h-2.712v-3.216l-1.296.456v2.76h-2.28v1.152h2.28v7.152c0 2.088.216 3.888 2.592 3.888.6 0 1.152-.12 1.704-.336l-.096-1.248c-.456.192-.864.336-1.344.336-1.272 0-1.56-.96-1.56-2.04v-7.752z" fill="#fff"/>
    <defs>
        <clipPath id="o3oru25q6a">
            <path fill="#fff" d="M0 0h124v24H0z"/>
        </clipPath>
    </defs>
</svg>
